<?xml version="1.0" encoding="utf-8"?>
<!-- Generator: Adobe Illustrator 13.0.0, SVG Export Plug-In . SVG Version: 6.00 Build 14948)  -->
<!DOCTYPE svg PUBLIC "-//W3C//DTD SVG 1.1//EN" "http://www.w3.org/Graphics/SVG/1.1/DTD/svg11.dtd">
<svg version="1.1" id="Layer_1" xmlns="http://www.w3.org/2000/svg" xmlns:xlink="http://www.w3.org/1999/xlink" x="0px" y="0px"
	 width="36px" height="36px" viewBox="0 0 36 36" enable-background="new 0 0 36 36" xml:space="preserve">
<g>
	<path fill="#FFFFFF" d="M24.34,18l-10.44,6.029V11.974L24.34,18z"/>
	<path fill="#FFFFFF" d="M18,0.328C8.258,0.328,0.36,8.24,0.36,18S8.258,35.672,18,35.672c9.742,0,17.641-7.912,17.641-17.672
		S27.742,0.328,18,0.328L18,0.328z M18,34.766c-9.249,0-16.747-7.514-16.747-16.78C1.253,8.716,8.751,1.202,18,1.202
		c9.248,0,16.747,7.514,16.747,16.78C34.747,27.252,27.248,34.766,18,34.766z"/>
</g>
</svg>
