<svg clip-rule="evenodd" fill-rule="evenodd" stroke-linejoin="round" stroke-miterlimit="1.41421" viewBox="0 0 41 33" xmlns="http://www.w3.org/2000/svg"><path d="m36.264 2.632-1.179-2.297c-4.387 2.07-7.667 4.791-9.84 8.164-2.172 3.373-3.259 7.191-3.259 11.453 0 3.352.724 6.146 2.173 8.38 1.738 2.691 4.242 4.036 7.512 4.036 2.275 0 4.199-.776 5.773-2.328 1.572-1.552 2.359-3.486 2.359-5.805 0-2.483-.776-4.459-2.328-5.928s-3.487-2.204-5.804-2.204c-1.698 0-3.27.558-4.718 1.676-.249-.745-.373-1.634-.373-2.669 0-2.442.952-4.852 2.856-7.233 1.903-2.379 4.179-4.127 6.828-5.245zm-21.603 0-1.179-2.297c-4.388 2.07-7.667 4.791-9.84 8.164-.477.741-.902 1.503-1.275 2.288-1.322 2.784-1.984 5.839-1.984 9.165 0 3.352.724 6.146 2.173 8.38 1.738 2.691 4.242 4.036 7.511 4.036 1.448 0 2.794-.352 4.035-1.056 1.242-.703 2.235-1.676 2.98-2.917.745-1.242 1.118-2.628 1.118-4.16 0-2.483-.787-4.459-2.359-5.928-1.574-1.469-3.498-2.204-5.774-2.204-1.738 0-3.311.558-4.718 1.676-.248-.745-.372-1.634-.372-2.669 0-2.442.951-4.852 2.856-7.233 1.903-2.379 4.179-4.127 6.828-5.245z" fill="#fff" fill-opacity=".15" fill-rule="nonzero"/></svg>